<?xml version="1.0" encoding="utf-8"?>
<!-- Uploaded to SVGRepo https://www.svgrepo.com -->
<svg version="1.1" id="Layer_1" xmlns="http://www.w3.org/2000/svg" xmlns:xlink="http://www.w3.org/1999/xlink" x="0px" y="0px"
	 width="300px" height="300px" viewBox="0 0 300 300" style="enable-background:new 0 0 300 300;" xml:space="preserve">
<path d="M128.7,32.2c0-13,10.5-23.5,23.5-23.5s23.5,10.5,23.5,23.5s-10.5,23.5-23.5,23.5S128.7,45.2,128.7,32.2z M87.5,135
	l-12.2-2.5c-4.1,2.8-6.5,4.3-10.6,7l-12.1,60.3l21,4.2L87.5,135z M184.8,291.6c7.6-1.8,12.4-9.4,10.6-17l-13.9-60.2
	c-0.5-2.2-1.5-4.2-2.9-5.9l-35.4-42.5l8.8-41.1l-62.3,37.8L79,214.6l-33.7,56c-4,6.7-1.9,15.4,4.8,19.4l0,0c6.7,4,15.4,1.9,19.4-4.8
	l35-58.1c0.8-1.4,1.4-2.9,1.7-4.5l9.3-45.5l39.2,47.1l13.1,56.9C169.6,288.7,177.2,293.4,184.8,291.6L184.8,291.6z M256.3,97.9
	l-0.2,0.2v0l0,0l-49.9,42.2L183.9,118h-41.1l-50.1,30.3l14.5-67.7c3.1-14.3,17.2-23.5,31.5-20.4c14.4,3.1,23.5,17.2,20.4,31.5
	l-1.1,4.3h8.3l51.5-43.5l16,18.9l22.2-13.7v40L256.3,97.9z M245.6,97L217,63.2L178.2,96H195c6.1,0,11,4.9,11,11
	c0,6-4.8,10.9-10.9,11l12,11.5L245.6,97z"/>
</svg>
